# xmcd
#
# Track frame offsets:
#	150
#	20256
#	44499
#	60384
#	79408
#	95809
#	124864
#	145102
#	162984
#	184022
#	205613
#	223868
#	243602
#
# Disc length: 3691 seconds
#
# Revision: 1
# Processed by: cddbd v1.5.2PL0 Copyright (c) Steve Scherf et al.
# Submitted via: audiograbber 1.83.01
#
DISCID=bb0e690d
DTITLE=Andreas Schnermann feat. Inga Lühning - Tell me the truth about love
DYEAR=2006
DGENRE=Jazz
TTITLE0=The more loving one
TTITLE1=If i could tell you
TTITLE2=Cocaine Lil and Morphine Sue
TTITLE3=Funeral blues
TTITLE4=Calypso
TTITLE5=Oh, tell me the truth about love
TTITLE6=Refugee blues
TTITLE7=At last the secret is out
TTITLE8=Underneath an abjekt willow
TTITLE9=Lay your sleeping head my love
TTITLE10=Warm are the still and lucky miles
TTITLE11=Carry her over the water
TTITLE12=Trio for Wystan
EXTD=
EXTT0=
EXTT1=
EXTT2=
EXTT3=
EXTT4=
EXTT5=
EXTT6=
EXTT7=
EXTT8=
EXTT9=
EXTT10=
EXTT11=
EXTT12=
PLAYORDER=
